<svg xmlns="http://www.w3.org/2000/svg" viewBox="0 0 100.71 112.82"><defs><style>.cls-1{fill:#86c3d0;}.cls-2{fill:#fff;}.cls-3{font-size:12px;fill:#1d1d1b;font-family:MyriadPro-Regular, Myriad Pro;}.cls-4{letter-spacing:0.01em;}</style></defs><g id="API"><path class="cls-1" d="M50.35,13.37a43,43,0,1,0,43.05,43A43,43,0,0,0,50.35,13.37Z"/><path class="cls-2" d="M75.1,57.4H68.86a1,1,0,1,1,0-2H75.1a1,1,0,0,1,0,2Z"/><path class="cls-2" d="M57.29,57.4H25.61a1,1,0,0,1,0-2H57.29a1,1,0,0,1,0,2Z"/><path class="cls-2" d="M63.07,63.19a6.79,6.79,0,1,1,6.78-6.79A6.79,6.79,0,0,1,63.07,63.19Zm0-11.58a4.8,4.8,0,1,0,4.79,4.79A4.8,4.8,0,0,0,63.07,51.61Z"/></g><g id="HOSTING"><text class="cls-3" transform="translate(17.93 -4.98)"><tspan class="cls-4">M</tspan><tspan x="9.72" y="0">ock</tspan></text></g></svg>